PathFileType	4	(X/Y/Z) abd_0kg_3.trc																										
DataRate	CameraRate	NumFrames	NumMarkers	Units	OrigDataRate	OrigDataStartFrame	OrigNumFrames																					
100	100	44	9	mm	100	296	787																					
Frame#	Time	gu			centelbow			EpL			centpxt8			centijc7			ij			ts			aa			ai		
		X1	Y1	Z1	X2	Y2	Z2	X3	Y3	Z3	X4	Y4	Z4	X5	Y5	Z5	X6	Y6	Z6	X7	Y7	Z7	X8	Y8	Z8	X9	Y9	Z9  
295	2.95	-108.375	68.555	103.242	-101.942	277.365	234.929	-121.233	288.064	211.417	-46.816	-153.158	-8.669	-46.816	31.938	-8.669	0	0	0	-136.586	-18.866	45.935	-152.628	86.657	99.156	-142.643	-65.91	149.065
296	2.96	-108.117	68.816	102.783	-100.338	278.2	233.483	-119.693	288.863	210.007	-46.816	-153.158	-8.669	-46.816	31.938	-8.669	0	0	0	-136.539	-18.74	45.982	-152.491	86.909	98.98	-142.483	-65.546	149.227
297	2.97	-108.18	68.78	102.494	-99.052	278.655	232.315	-118.453	289.303	208.87	-46.816	-153.158	-8.669	-46.816	31.938	-8.669	0	0	0	-136.848	-18.705	45.958	-152.694	87.07	98.734	-142.681	-65.273	149.317
298	2.98	-108.621	68.368	102.483	-98.115	278.699	231.459	-117.537	289.346	208.031	-46.816	-153.158	-8.669	-46.816	31.938	-8.669	0	0	0	-137.434	-18.772	45.905	-153.158	87.13	98.465	-143.167	-65.106	149.375
299	2.99	-108.967	68.073	102.639	-97.097	278.907	230.673	-116.533	289.546	207.254	-46.816	-153.158	-8.669	-46.816	31.938	-8.669	0	0	0	-137.828	-18.848	45.932	-153.426	87.184	98.266	-143.461	-64.939	149.515
300	3	-108.828	68.152	102.769	-95.621	279.534	229.762	-115.081	290.15	206.351	-46.816	-153.158	-8.669	-46.816	31.938	-8.669	0	0	0	-137.85	-18.936	46.13	-153.331	87.233	98.22	-143.387	-64.768	149.833
301	3.01	-108.484	68.374	102.694	-93.916	280.28	228.662	-113.409	290.873	205.268	-46.816	-153.158	-8.669	-46.816	31.938	-8.669	0	0	0	-137.836	-19.066	46.404	-153.193	87.243	98.244	-143.283	-64.634	150.228
302	3.02	-108.379	68.521	102.451	-92.401	280.888	227.467	-111.929	291.471	204.099	-46.816	-153.158	-8.669	-46.816	31.938	-8.669	0	0	0	-138.033	-19.143	46.574	-153.245	87.297	98.187	-143.378	-64.467	150.51
303	3.03	-108.532	68.54	102.231	-91.108	281.337	226.321	-110.668	291.917	202.979	-46.816	-153.158	-8.669	-46.816	31.938	-8.669	0	0	0	-138.292	-19.126	46.647	-153.34	87.431	98.068	-143.516	-64.234	150.684
304	3.04	-108.759	68.402	102.099	-89.854	281.621	225.243	-109.437	292.203	201.92	-46.816	-153.158	-8.669	-46.816	31.938	-8.669	0	0	0	-138.479	-19.135	46.762	-153.339	87.535	98	-143.582	-64.038	150.893
305	3.05	-108.977	68.132	101.997	-88.563	281.756	224.196	-108.159	292.345	200.887	-46.816	-153.158	-8.669	-46.816	31.938	-8.669	0	0	0	-138.702	-19.24	46.971	-153.351	87.555	98.012	-143.687	-63.919	151.204
306	3.06	-109.127	67.86	101.939	-87.226	281.854	223.23	-106.821	292.459	199.928	-46.816	-153.158	-8.669	-46.816	31.938	-8.669	0	0	0	-139.064	-19.358	47.222	-153.494	87.567	98.053	-143.906	-63.8	151.563
307	3.07	-109.077	67.776	101.905	-85.781	282.116	222.321	-105.373	292.734	199.022	-46.816	-153.158	-8.669	-46.816	31.938	-8.669	0	0	0	-139.495	-19.432	47.412	-153.714	87.615	98.044	-144.152	-63.646	151.858
308	3.08	-108.848	67.877	101.817	-84.271	282.542	221.397	-103.868	293.167	198.105	-46.816	-153.158	-8.669	-46.816	31.938	-8.669	0	0	0	-139.813	-19.482	47.469	-153.836	87.672	97.93	-144.261	-63.493	152.01
309	3.09	-108.732	67.875	101.75	-82.92	282.813	220.576	-102.534	293.447	197.303	-46.816	-153.158	-8.669	-46.816	31.938	-8.669	0	0	0	-139.879	-19.494	47.449	-153.72	87.752	97.765	-144.117	-63.329	152.073
310	3.1	-108.91	67.637	101.759	-81.818	282.792	219.907	-101.457	293.445	196.663	-46.816	-153.158	-8.669	-46.816	31.938	-8.669	0	0	0	-139.772	-19.481	47.502	-153.452	87.842	97.696	-143.836	-63.171	152.194
311	3.11	-109.212	67.284	101.757	-80.776	282.636	219.228	-100.449	293.312	196.024	-46.816	-153.158	-8.669	-46.816	31.938	-8.669	0	0	0	-139.718	-19.59	47.709	-153.257	87.799	97.8	-143.67	-63.159	152.455
312	3.12	-109.407	66.878	101.758	-79.633	282.436	218.516	-99.349	293.129	195.357	-46.816	-153.158	-8.669	-46.816	31.938	-8.669	0	0	0	-139.825	-19.873	47.965	-153.234	87.576	97.961	-143.707	-63.333	152.759
313	3.13	-109.423	66.629	101.71	-78.452	282.413	217.738	-98.226	293.107	194.628	-46.816	-153.158	-8.669	-46.816	31.938	-8.669	0	0	0	-140.061	-20.148	48.089	-153.351	87.358	97.996	-143.857	-63.505	152.929
314	3.14	-109.321	66.895	101.396	-77.399	282.923	216.711	-97.245	293.598	193.654	-46.816	-153.158	-8.669	-46.816	31.938	-8.669	0	0	0	-140.321	-20.243	48.094	-153.51	87.312	97.921	-143.999	-63.504	152.978
315	3.15	-109.212	67.459	100.918	-76.516	283.72	215.576	-96.427	294.371	192.564	-46.816	-153.158	-8.669	-46.816	31.938	-8.669	0	0	0	-140.464	-20.205	48.153	-153.559	87.4	97.897	-144.015	-63.368	153.081
316	3.16	-109.139	67.567	100.625	-75.638	284.017	214.693	-95.578	294.662	191.703	-46.816	-153.158	-8.669	-46.816	31.938	-8.669	0	0	0	-140.463	-20.15	48.268	-153.452	87.512	97.916	-143.883	-63.199	153.248
317	3.17	-109.094	66.986	100.62	-74.665	283.575	214.145	-94.589	294.241	191.152	-46.816	-153.158	-8.669	-46.816	31.938	-8.669	0	0	0	-140.45	-20.073	48.279	-153.325	87.655	97.814	-143.72	-62.992	153.317
318	3.18	-109.097	66.267	100.808	-73.748	282.968	213.838	-93.631	293.665	190.823	-46.816	-153.158	-8.669	-46.816	31.938	-8.669	0	0	0	-140.545	-19.932	48.141	-153.317	87.863	97.558	-143.655	-62.714	153.24
319	3.19	-109.098	65.974	101.058	-72.997	282.789	213.629	-92.836	293.507	190.586	-46.816	-153.158	-8.669	-46.816	31.938	-8.669	0	0	0	-140.722	-19.824	48.03	-153.406	88.034	97.33	-143.711	-62.477	153.184
320	3.2	-109.061	66.144	101.203	-72.342	283.093	213.316	-92.155	293.818	190.255	-46.816	-153.158	-8.669	-46.816	31.938	-8.669	0	0	0	-140.886	-19.857	48.124	-153.478	88.062	97.314	-143.821	-62.392	153.328
321	3.21	-109.111	66.357	101.188	-71.741	283.422	212.859	-91.55	294.154	189.797	-46.816	-153.158	-8.669	-46.816	31.938	-8.669	0	0	0	-140.99	-19.995	48.356	-153.47	87.984	97.444	-143.893	-62.42	153.605
322	3.22	-109.302	66.194	101.131	-71.137	283.315	212.424	-90.956	294.069	189.381	-46.816	-153.158	-8.669	-46.816	31.938	-8.669	0	0	0	-141.002	-20.164	48.553	-153.346	87.867	97.56	-143.835	-62.496	153.841
323	3.23	-109.477	65.729	101.141	-70.412	282.846	212.129	-90.252	293.636	189.121	-46.816	-153.158	-8.669	-46.816	31.938	-8.669	0	0	0	-140.889	-20.308	48.686	-153.096	87.765	97.636	-143.609	-62.567	154.007
324	3.24	-109.5	65.331	101.242	-69.549	282.423	211.963	-89.42	293.25	188.999	-46.816	-153.158	-8.669	-46.816	31.938	-8.669	0	0	0	-140.739	-20.368	48.749	-152.824	87.743	97.645	-143.33	-62.556	154.101
325	3.25	-109.443	65.137	101.398	-68.669	282.216	211.845	-88.575	293.073	188.927	-46.816	-153.158	-8.669	-46.816	31.938	-8.669	0	0	0	-140.735	-20.365	48.699	-152.717	87.786	97.531	-143.203	-62.474	154.086
326	3.26	-109.535	65.013	101.471	-67.951	282.107	211.586	-87.903	292.986	188.717	-46.816	-153.158	-8.669	-46.816	31.938	-8.669	0	0	0	-140.929	-20.364	48.627	-152.826	87.828	97.39	-143.284	-62.391	154.049
327	3.27	-109.869	64.837	101.394	-67.435	281.971	211.104	-87.443	292.866	188.292	-46.816	-153.158	-8.669	-46.816	31.938	-8.669	0	0	0	-141.159	-20.365	48.663	-152.987	87.863	97.361	-143.413	-62.318	154.117
328	3.28	-110.178	64.68	101.322	-66.894	281.859	210.612	-86.96	292.768	187.858	-46.816	-153.158	-8.669	-46.816	31.938	-8.669	0	0	0	-141.271	-20.346	48.788	-153.029	87.915	97.431	-143.436	-62.233	154.27
329	3.29	-110.154	64.697	101.38	-66.106	281.914	210.288	-86.225	292.836	187.587	-46.816	-153.158	-8.669	-46.816	31.938	-8.669	0	0	0	-141.259	-20.307	48.916	-152.939	87.984	97.512	-143.35	-62.138	154.422
330	3.3	-109.823	64.823	101.501	-65.109	282.071	210.075	-85.273	293.005	187.418	-46.816	-153.158	-8.669	-46.816	31.938	-8.669	0	0	0	-141.205	-20.283	49.018	-152.804	88.035	97.572	-143.232	-62.064	154.545
331	3.31	-109.476	64.782	101.596	-64.107	282.047	209.865	-84.309	292.996	187.251	-46.816	-153.158	-8.669	-46.816	31.938	-8.669	0	0	0	-141.19	-20.335	49.106	-152.699	88.013	97.616	-143.145	-62.062	154.656
332	3.32	-109.344	64.537	101.567	-63.275	281.803	209.536	-83.52	292.772	186.969	-46.816	-153.158	-8.669	-46.816	31.938	-8.669	0	0	0	-141.214	-20.458	49.202	-152.601	87.924	97.665	-143.079	-62.126	154.777
333	3.33	-109.414	64.407	101.279	-62.642	281.688	208.916	-82.946	292.67	186.409	-46.816	-153.158	-8.669	-46.816	31.938	-8.669	0	0	0	-141.218	-20.561	49.315	-152.44	87.854	97.742	-142.978	-62.178	154.911
334	3.34	-109.519	64.584	100.796	-62.096	281.909	208.059	-82.473	292.893	185.619	-46.816	-153.158	-8.669	-46.816	31.938	-8.669	0	0	0	-141.172	-20.58	49.443	-152.21	87.866	97.843	-142.831	-62.154	155.057
335	3.35	-109.588	64.914	100.387	-61.575	282.3	207.262	-82.018	293.282	184.882	-46.816	-153.158	-8.669	-46.816	31.938	-8.669	0	0	0	-141.126	-20.547	49.559	-151.996	87.934	97.918	-142.702	-62.066	155.196
336	3.36	-109.708	65.186	100.194	-61.153	282.632	206.703	-81.642	293.614	184.364	-46.816	-153.158	-8.669	-46.816	31.938	-8.669	0	0	0	-141.198	-20.522	49.595	-151.937	88	97.891	-142.708	-61.968	155.262
337	3.37	-109.847	65.271	100.176	-60.782	282.759	206.363	-81.291	293.748	184.046	-46.816	-153.158	-8.669	-46.816	31.938	-8.669	0	0	0	-141.424	-20.525	49.525	-152.075	88.033	97.758	-142.883	-61.903	155.219
338	3.38	-109.831	65.173	100.214	-60.266	282.681	206.129	-80.784	293.683	183.826	-46.816	-153.158	-8.669	-46.816	31.938	-8.669	0	0	0	-141.691	-20.534	49.432	-152.29	88.046	97.628	-143.106	-61.869	155.144
